<svg width="129" height="102" viewBox="0 0 129 102" fill="none" xmlns="http://www.w3.org/2000/svg">
<g filter="url(#filter0_dd_84_660)">
<path d="M25.243 84.1158C19.7202 84.1158 15.243 79.6387 15.243 74.1158L15.243 21.5152C15.243 15.9923 19.7202 11.5152 25.243 11.5152L104 11.5152C109.522 11.5152 114 15.9923 114 21.5152L114 74.1158C114 79.6387 109.522 84.1158 104 84.1158L25.243 84.1158Z" fill="#1BB194"/>
</g>
<g clip-path="url(#clip0_84_660)">
<path d="M63.6717 62.2104C63.9188 62.4358 64.0555 62.7571 64.0555 63.0916V70.0706C64.0555 71.1115 62.8181 71.6951 61.9728 71.0877C61.2349 70.5575 60.3751 69.9841 59.407 69.4107C57.3796 68.2094 55.2975 67.2603 53.2192 66.5895C50.7441 65.791 48.2674 65.3872 45.85 65.3872C45.8484 65.3872 45.8469 65.3862 45.8463 65.3847L41.9467 55.9126C41.6187 55.1158 42.1975 54.2443 43.0582 54.2831C44.5047 54.3482 46.462 54.5259 48.6837 54.965C52.8354 55.7857 58.7375 57.7087 63.6717 62.2104Z" fill="white"/>
<path d="M86.1848 54.2836C87.0454 54.2449 87.6239 55.1163 87.2959 55.9129L83.3965 65.3847C83.3959 65.3862 83.3944 65.3872 83.3928 65.3872C80.9754 65.3872 78.4987 65.791 76.0236 66.5895C73.9453 67.26 71.8632 68.2094 69.8358 69.4107C68.8677 69.9842 68.008 70.5576 67.2701 71.0878C66.4247 71.6952 65.1873 71.1115 65.1873 70.0706V63.0916C65.1873 62.7571 65.324 62.4359 65.5711 62.2104C70.4954 57.718 76.3838 55.7945 80.5257 54.9718C82.7582 54.5282 84.7293 54.3491 86.1848 54.2836Z" fill="white"/>
<path d="M80.5819 52.1251C80.5872 52.2703 80.4839 52.3965 80.3415 52.4252C77.5082 52.9857 74.825 53.8435 72.3652 54.9764C69.8158 56.1496 67.5022 57.6225 65.468 59.3647C64.9821 59.7809 64.2604 59.7808 63.7745 59.3647C61.7405 57.6225 59.4267 56.1496 56.8773 54.9764C54.4174 53.8438 51.7342 52.9857 48.9009 52.4252C48.747 52.3947 48.6354 52.2584 48.6415 52.1015C48.8532 46.6876 53.2438 42.6548 59.0204 42.6548H70.2025C75.9873 42.6548 80.3823 46.6993 80.5819 52.1251Z" fill="white"/>
<path d="M70.4842 38.3997C73.7252 35.1281 73.7252 29.8239 70.4842 26.5523C67.2432 23.2808 61.9884 23.2808 58.7474 26.5523C55.5064 29.8239 55.5064 35.1281 58.7474 38.3997C61.9884 41.6712 67.2432 41.6712 70.4842 38.3997Z" fill="white"/>
<path d="M76.5694 26.0676L64.8243 23.3571C64.6919 23.3263 64.5508 23.3263 64.4184 23.3571L52.6733 26.0676C52.263 26.1624 51.9727 26.5272 51.9727 26.9481C51.9727 27.3689 52.263 27.7338 52.6733 27.8286L64.4184 30.539C64.4846 30.5545 64.5534 30.562 64.6213 30.562C64.6893 30.562 64.7581 30.5545 64.8243 30.539L75.463 28.0839V35.0793C75.463 35.5783 75.8671 35.9828 76.3665 35.9828C76.8659 35.9828 77.27 35.5783 77.27 35.0793V26.9481C77.27 26.5272 76.9797 26.1624 76.5694 26.0676Z" fill="white"/>
</g>
<defs>
<filter id="filter0_dd_84_660" x="0.868497" y="0.0155008" width="127.506" height="101.35" filterUnits="userSpaceOnUse" color-interpolation-filters="sRGB">
<feFlood flood-opacity="0" result="BackgroundImageFix"/>
<feColorMatrix in="SourceAlpha" type="matrix" values="0 0 0 0 0 0 0 0 0 0 0 0 0 0 0 0 0 0 127 0" result="hardAlpha"/>
<feOffset dy="2"/>
<feGaussianBlur stdDeviation="3"/>
<feComposite in2="hardAlpha" operator="out"/>
<feColorMatrix type="matrix" values="0 0 0 0 0.702326 0 0 0 0 0.941667 0 0 0 0 0.893152 0 0 0 1 0"/>
<feBlend mode="normal" in2="BackgroundImageFix" result="effect1_dropShadow_84_660"/>
<feColorMatrix in="SourceAlpha" type="matrix" values="0 0 0 0 0 0 0 0 0 0 0 0 0 0 0 0 0 0 127 0" result="hardAlpha"/>
<feOffset dy="2.87491"/>
<feGaussianBlur stdDeviation="7.18727"/>
<feComposite in2="hardAlpha" operator="out"/>
<feColorMatrix type="matrix" values="0 0 0 0 0 0 0 0 0 0 0 0 0 0 0 0 0 0 0.14 0"/>
<feBlend mode="normal" in2="effect1_dropShadow_84_660" result="effect2_dropShadow_84_660"/>
<feBlend mode="normal" in="SourceGraphic" in2="effect2_dropShadow_84_660" result="shape"/>
</filter>
<clipPath id="clip0_84_660">
<rect width="51.4286" height="51.4286" fill="white" transform="translate(38.1178 22.101)"/>
</clipPath>
</defs>
</svg>
