<svg width="129" height="102" viewBox="0 0 129 102" fill="none" xmlns="http://www.w3.org/2000/svg">
<g filter="url(#filter0_dd_89_45)">
<path d="M25.243 84.3651C19.7202 84.3651 15.243 79.8879 15.243 74.3651L15.243 21.7644C15.243 16.2416 19.7202 11.7644 25.243 11.7644L104 11.7644C109.522 11.7644 114 16.2416 114 21.7644L114 74.3651C114 79.8879 109.522 84.3651 104 84.3651L25.243 84.3651Z" fill="#888CFB"/>
</g>
<g clip-path="url(#clip0_89_45)">
<path d="M65.7569 48.5011C72.2036 48.5011 77.4297 43.0309 77.4297 36.2829C77.4297 29.535 72.2036 24.0648 65.7569 24.0648C59.3103 24.0648 54.0842 29.535 54.0842 36.2829C54.0842 43.0309 59.3103 48.5011 65.7569 48.5011Z" fill="white"/>
<path d="M87.8479 66.6102C87.8479 66.5011 87.7933 66.392 87.7933 66.2829C87.6297 65.5193 87.2479 64.8648 86.7569 64.3193C86.1569 63.7193 85.4479 63.2284 84.5751 63.0102C84.2479 62.9011 83.866 62.8466 83.4842 62.8466C81.0297 62.8466 79.0115 64.8648 79.0115 67.3193C79.0115 69.7739 81.0297 71.792 83.4842 71.792C85.9388 71.792 87.957 69.7739 87.957 67.3193C87.957 67.1011 87.9024 66.8829 87.8479 66.6102Z" fill="white"/>
<path d="M51.466 62.9011C51.466 60.4466 49.4479 58.4284 46.9933 58.4284C46.8297 58.4284 46.666 58.4284 46.5024 58.4284C46.4479 58.4284 46.4479 58.4284 46.3933 58.4284C46.2842 58.4284 46.1751 58.4829 46.066 58.4829C46.0115 58.4829 46.0115 58.4829 45.9569 58.5375C45.8479 58.5375 45.7388 58.592 45.6297 58.6466C45.5751 58.6466 45.5751 58.6466 45.5751 58.7011C45.466 58.7557 45.3569 58.8102 45.2479 58.8102H45.1933C45.0842 58.8648 44.9751 58.9193 44.8115 58.9739C44.7024 59.0284 44.5933 59.1375 44.4297 59.192C44.2115 59.3557 43.9388 59.5738 43.7751 59.792C43.0115 60.6102 42.5751 61.6466 42.5751 62.8466C42.5751 65.3011 44.5933 67.3193 47.0479 67.3193C49.5024 67.3193 51.466 65.3557 51.466 62.9011Z" fill="white"/>
<path d="M89.1569 63.8284C87.7933 52.8648 73.5569 49.3193 71.866 48.9375L65.9206 53.6284L59.9751 48.9375C58.7206 49.2102 50.7569 51.1738 46.066 56.5193L42.0842 42.5011L40.066 43.0466L44.1569 57.6648C44.9751 57.2284 45.9569 56.9557 46.9933 56.9557C50.266 56.9557 52.9388 59.6284 52.9388 62.9011C52.9388 65.9011 50.7024 68.3557 47.866 68.792C50.3206 69.8284 53.7024 70.8648 58.1751 71.4648V57.2829C58.1751 57.2829 65.5388 57.2829 70.6115 60.6102L70.666 72.0648H72.1388L72.0842 60.6102C77.1569 57.2829 84.5206 57.2829 84.5206 57.2829V61.5375C86.5388 61.9193 88.1751 63.2829 88.9388 65.1375C89.1569 64.7011 89.2115 64.2648 89.1569 63.8284Z" fill="white"/>
</g>
<defs>
<filter id="filter0_dd_89_45" x="0.868497" y="0.264768" width="127.506" height="101.35" filterUnits="userSpaceOnUse" color-interpolation-filters="sRGB">
<feFlood flood-opacity="0" result="BackgroundImageFix"/>
<feColorMatrix in="SourceAlpha" type="matrix" values="0 0 0 0 0 0 0 0 0 0 0 0 0 0 0 0 0 0 127 0" result="hardAlpha"/>
<feOffset dy="2"/>
<feGaussianBlur stdDeviation="3"/>
<feComposite in2="hardAlpha" operator="out"/>
<feColorMatrix type="matrix" values="0 0 0 0 0.702326 0 0 0 0 0.941667 0 0 0 0 0.893152 0 0 0 1 0"/>
<feBlend mode="normal" in2="BackgroundImageFix" result="effect1_dropShadow_89_45"/>
<feColorMatrix in="SourceAlpha" type="matrix" values="0 0 0 0 0 0 0 0 0 0 0 0 0 0 0 0 0 0 127 0" result="hardAlpha"/>
<feOffset dy="2.87491"/>
<feGaussianBlur stdDeviation="7.18727"/>
<feComposite in2="hardAlpha" operator="out"/>
<feColorMatrix type="matrix" values="0 0 0 0 0 0 0 0 0 0 0 0 0 0 0 0 0 0 0.14 0"/>
<feBlend mode="normal" in2="effect1_dropShadow_89_45" result="effect2_dropShadow_89_45"/>
<feBlend mode="normal" in="SourceGraphic" in2="effect2_dropShadow_89_45" result="shape"/>
</filter>
<clipPath id="clip0_89_45">
<rect width="51.4286" height="51.4286" fill="white" transform="translate(38.1178 22.3503)"/>
</clipPath>
</defs>
</svg>
