<svg width="22" height="22" viewBox="0 0 22 22" fill="none" xmlns="http://www.w3.org/2000/svg">
<rect x="0.00012207" y="0.549561" width="21.3834" height="21.3834" rx="7.12781" fill="#01856B"/>
<g clip-path="url(#clip0_89_24)">
<path d="M15.6536 13.638L10.9398 18.2526C10.826 18.3896 10.6227 18.4084 10.4857 18.2946C10.4704 18.2819 10.4563 18.2679 10.4436 18.2526L5.72987 13.638C5.57915 13.4983 5.57022 13.2628 5.70993 13.1121C5.77921 13.0374 5.87608 12.9943 5.97799 12.993H8.21081V9.05044C8.25317 8.80057 8.45527 8.60858 8.707 8.57904H12.6765C12.875 8.57904 12.9246 8.82711 12.9246 9.05044V12.993H15.4055C15.611 12.9957 15.7754 13.1644 15.7727 13.37C15.7714 13.4719 15.7283 13.5687 15.6536 13.638Z" fill="white"/>
<path d="M12.6765 7.83479H8.70698C8.50146 7.83479 8.33483 7.66816 8.33483 7.46263C8.33483 7.25711 8.50146 7.09048 8.70698 7.09048H12.6765C12.882 7.09048 13.0486 7.25711 13.0486 7.46263C13.0486 7.66816 12.882 7.83479 12.6765 7.83479Z" fill="white"/>
<path d="M12.6765 6.34622H8.70698C8.50146 6.34622 8.33483 6.17959 8.33483 5.97407C8.33483 5.76855 8.50146 5.60192 8.70698 5.60192H12.6765C12.882 5.60192 13.0486 5.76855 13.0486 5.97407C13.0486 6.17959 12.882 6.34622 12.6765 6.34622Z" fill="white"/>
<path d="M12.6765 4.85771H8.70698C8.50146 4.85771 8.33483 4.69108 8.33483 4.48555C8.33483 4.28003 8.50146 4.1134 8.70698 4.1134H12.6765C12.882 4.1134 13.0486 4.28003 13.0486 4.48555C13.0486 4.69108 12.882 4.85771 12.6765 4.85771Z" fill="white"/>
</g>
<defs>
<clipPath id="clip0_89_24">
<rect width="14.2556" height="14.2556" fill="white" transform="translate(3.56409 4.1134)"/>
</clipPath>
</defs>
</svg>
