<svg width="22" height="22" viewBox="0 0 22 22" fill="none" xmlns="http://www.w3.org/2000/svg">
<rect x="0.00012207" y="0.0478516" width="21.3834" height="21.3834" rx="7.12781" fill="#044E93"/>
<g clip-path="url(#clip0_89_71)">
<path d="M15.6536 13.1364L10.9398 17.7509C10.826 17.8879 10.6227 17.9067 10.4857 17.793C10.4704 17.7803 10.4563 17.7662 10.4436 17.7509L5.72987 13.1364C5.57915 12.9967 5.57022 12.7612 5.70993 12.6105C5.77921 12.5357 5.87608 12.4926 5.97799 12.4913H8.21081V8.5488C8.25317 8.29892 8.45527 8.10693 8.707 8.07739H12.6765C12.875 8.07739 12.9246 8.32547 12.9246 8.5488V12.4913H15.4055C15.611 12.494 15.7754 12.6628 15.7727 12.8683C15.7714 12.9702 15.7283 13.0671 15.6536 13.1364Z" fill="white"/>
<path d="M12.6765 7.33314H8.70698C8.50146 7.33314 8.33483 7.16651 8.33483 6.96099C8.33483 6.75546 8.50146 6.58883 8.70698 6.58883H12.6765C12.882 6.58883 13.0486 6.75546 13.0486 6.96099C13.0486 7.16651 12.882 7.33314 12.6765 7.33314Z" fill="white"/>
<path d="M12.6765 5.84458H8.70698C8.50146 5.84458 8.33483 5.67794 8.33483 5.47242C8.33483 5.2669 8.50146 5.10027 8.70698 5.10027H12.6765C12.882 5.10027 13.0486 5.2669 13.0486 5.47242C13.0486 5.67794 12.882 5.84458 12.6765 5.84458Z" fill="white"/>
<path d="M12.6765 4.35606H8.70698C8.50146 4.35606 8.33483 4.18943 8.33483 3.98391C8.33483 3.77838 8.50146 3.61176 8.70698 3.61176H12.6765C12.882 3.61176 13.0486 3.77838 13.0486 3.98391C13.0486 4.18943 12.882 4.35606 12.6765 4.35606Z" fill="white"/>
</g>
<defs>
<clipPath id="clip0_89_71">
<rect width="14.2556" height="14.2556" fill="white" transform="translate(3.56409 3.61176)"/>
</clipPath>
</defs>
</svg>
