<svg width="22" height="23" viewBox="0 0 22 23" fill="none" xmlns="http://www.w3.org/2000/svg">
<rect x="0.00012207" y="0.798828" width="21.3834" height="21.3834" rx="7.12781" fill="#5156CF"/>
<g clip-path="url(#clip0_89_51)">
<path d="M15.6536 13.8874L10.9398 18.5019C10.826 18.6389 10.6227 18.6577 10.4857 18.5439C10.4704 18.5313 10.4563 18.5172 10.4436 18.5019L5.72987 13.8874C5.57915 13.7476 5.57022 13.5122 5.70993 13.3614C5.77921 13.2867 5.87608 13.2436 5.97799 13.2423H8.21081V9.29977C8.25317 9.0499 8.45527 8.85791 8.707 8.82837H12.6765C12.875 8.82837 12.9246 9.07644 12.9246 9.29977V13.2423H15.4055C15.611 13.245 15.7754 13.4138 15.7727 13.6193C15.7714 13.7212 15.7283 13.8181 15.6536 13.8874Z" fill="white"/>
<path d="M12.6765 8.08412H8.70698C8.50146 8.08412 8.33483 7.91748 8.33483 7.71196C8.33483 7.50644 8.50146 7.33981 8.70698 7.33981H12.6765C12.882 7.33981 13.0486 7.50644 13.0486 7.71196C13.0486 7.91748 12.882 8.08412 12.6765 8.08412Z" fill="white"/>
<path d="M12.6765 6.59555H8.70698C8.50146 6.59555 8.33483 6.42892 8.33483 6.2234C8.33483 6.01788 8.50146 5.85125 8.70698 5.85125H12.6765C12.882 5.85125 13.0486 6.01788 13.0486 6.2234C13.0486 6.42892 12.882 6.59555 12.6765 6.59555Z" fill="white"/>
<path d="M12.6765 5.10704H8.70698C8.50146 5.10704 8.33483 4.94041 8.33483 4.73488C8.33483 4.52936 8.50146 4.36273 8.70698 4.36273H12.6765C12.882 4.36273 13.0486 4.52936 13.0486 4.73488C13.0486 4.94041 12.882 5.10704 12.6765 5.10704Z" fill="white"/>
</g>
<defs>
<clipPath id="clip0_89_51">
<rect width="14.2556" height="14.2556" fill="white" transform="translate(3.56409 4.36273)"/>
</clipPath>
</defs>
</svg>
